# xmcd CD database file
#
# Track frame offsets:
#	187
#	19725
#	36287
#	54817
#	78230
#	94340
#	116530
#	130850
#	149152
#	167412
#	185130
#
# Disc length: 2735 seconds
#
# Revision: 2
# Processed by: cddbd v1.5.2PL0 Copyright (c) Steve Scherf et al.
# Submitted via: CDex 1.70beta1
#
DISCID=920aad0b
DTITLE=岩崎宏美 - Diamant
DYEAR=1985
DGENRE=Pop
TTITLE0=恋孔雀
TTITLE1=星遊劇
TTITLE2=唇未遂
TTITLE3=夏物語
TTITLE4=夢狩人
TTITLE5=偽終止
TTITLE6=横浜嬢
TTITLE7=射麗女
TTITLE8=決心
TTITLE9=風関係
TTITLE10=誘惑雨
EXTD=YEAR: 1985
EXTT0=
EXTT1=
EXTT2=
EXTT3=
EXTT4=
EXTT5=
EXTT6=
EXTT7=
EXTT8=
EXTT9=
EXTT10=
PLAYORDER=
